<svg xmlns="http://www.w3.org/2000/svg" xmlns:xlink="http://www.w3.org/1999/xlink" width="16" height="30" viewBox="0 0 16 30">
  <defs>
    <style>
      .cls-1 {
        fill-rule: evenodd;
        filter: url(#filter);
      }
    </style>
    <filter id="filter" x="1201" y="2467" width="16" height="30" filterUnits="userSpaceOnUse">
      <feFlood result="flood" flood-color="#f4f4f4"/>
      <feComposite result="composite" operator="in" in2="SourceGraphic"/>
      <feBlend result="blend" in2="SourceGraphic"/>
    </filter>
  </defs>
  <path id="fa-facebook" class="cls-1" d="M1212.78,2467.01a7.128,7.128,0,0,0-5.13,1.85,6.868,6.868,0,0,0-1.92,5.2v3.92h-4.72v5.34h4.72v13.67h5.66v-13.67h4.71l0.72-5.34h-5.43v-3.4a2.927,2.927,0,0,1,.56-1.95,2.785,2.785,0,0,1,2.15-.65h2.9v-4.75a30.32,30.32,0,0,0-4.22-.22h0Z" transform="translate(-1201 -2467)"/>
</svg>
