<svg xmlns="http://www.w3.org/2000/svg" xmlns:xlink="http://www.w3.org/1999/xlink" width="20" height="30" viewBox="0 0 20 30">
  <defs>
    <style>
      .cls-1 {
        fill-rule: evenodd;
        filter: url(#filter);
      }
    </style>
    <filter id="filter" x="811" y="2312" width="20" height="30" filterUnits="userSpaceOnUse">
      <feFlood result="flood" flood-color="#fff"/>
      <feComposite result="composite" operator="in" in2="SourceGraphic"/>
      <feBlend result="blend" in2="SourceGraphic"/>
    </filter>
  </defs>
  <path id="fa-map-marker" class="cls-1" d="M821,2327a5.01,5.01,0,1,1,3.534-1.47A4.807,4.807,0,0,1,821,2327Zm7.068-12.07A10,10,0,0,0,811,2322a8.194,8.194,0,0,0,.644,3.49l7.127,15.12a2.244,2.244,0,0,0,.907,1.01,2.532,2.532,0,0,0,2.636,0,2.375,2.375,0,0,0,.928-1.01l7.106-15.12a8.178,8.178,0,0,0,.645-3.49A9.629,9.629,0,0,0,828.064,2314.93Z" transform="translate(-811 -2312)"/>
</svg>
