<svg xmlns="http://www.w3.org/2000/svg" width="59.406" height="59.93" viewBox="0 0 59.406 59.93">
  <defs>
    <style>
      .cls-1 {
        fill: #aba000;
        fill-rule: evenodd;
      }
    </style>
  </defs>
  <path id="wheat_копия" data-name="wheat копия" class="cls-1" d="M510.791,1916.66c16.481,0,29.625,13.39,29.608,30.16-0.016,16.2-12.876,29.49-28.759,29.76A29.964,29.964,0,1,1,510.791,1916.66Zm-27.629,29.76c0.134,15.13,11.53,28.11,27.5,28.04,15.6-.08,27.3-12.31,27.579-27.47A27.541,27.541,0,1,0,483.162,1946.42Zm17.949,7.19a60.207,60.207,0,0,1-1.415-6.38c-0.283-2.43.283-2.87,2.459-2.83a65.529,65.529,0,0,1-1.081-6.78c-0.169-2.83.84-3.43,3.572-2.5,0.494,0.17.979,0.37,1.688,0.63-1.051-3.88.16-7.02,2.669-9.77,1.439-1.58,2.271-1.56,3.692.09,2.367,2.75,3.43,5.84,2.342,9.59,1.18-.33,2.193-0.7,3.238-0.88a1.563,1.563,0,0,1,2.052,1.75c-0.191,2.59-.574,5.16-0.884,7.8,0.391,0.16,1.666.28,1.982,0.9a6.56,6.56,0,0,1,.229,3.24,11.112,11.112,0,0,1-.628,2.56c-0.266.84-.628,1.64-1,2.59a3.694,3.694,0,0,1,1.789.05c0.66,0.49,1.586,1.31,1.552,1.95-0.205,3.78-1.083,7.36-4.158,9.97-4.035,3.41-8.681,3.71-13.369,2.13-4.65-1.58-7-5.27-7.52-10.16-0.043-.41-0.08-0.83-0.151-1.23-0.347-1.97.252-2.69,2.269-2.72h0.677Zm-0.651,2.51c-0.506,5.44,4.729,10.65,8.875,9.82C509.814,1960.2,505.069,1955.75,500.46,1956.12Zm11.514,9.79c4.582,0.85,9.595-4.72,8.933-9.77C515.985,1955.97,511.774,1960.88,511.974,1965.91Zm7.463-19c-4.139,0-8.045,4.52-7.327,8.82C515.27,1955.96,519.723,1952.27,519.437,1946.91Zm-10.091,8.78c0.773-3.43-2.733-9.12-7.37-8.61C502.346,1952.32,505.3,1955.77,509.346,1955.69Zm1.316-17.67c3.661-2.9,3.166-8.37.033-10.37C507.354,1930.86,507.34,1935.46,510.662,1938.02Zm-1.318,8.16c0.659-4.52-2.091-8.55-6-8.82C502.433,1941.84,506.453,1946.23,509.344,1946.18Zm8.773-8.89c-4.124.64-6.575,4.27-6.083,8.86C515.713,1945.93,518.607,1941.78,518.117,1937.29Zm-8.9,20.95c0.566,0.93,1,1.65,1.519,2.51,0.528-.91.952-1.64,1.458-2.51h-2.977Z" transform="translate(-481 -1916.66)"/>
</svg>
