<svg xmlns="http://www.w3.org/2000/svg" width="59.5" height="60.06" viewBox="0 0 59.5 60.06">
  <defs>
    <style>
      .cls-1 {
        fill: #939393;
        fill-rule: evenodd;
      }
    </style>
  </defs>
  <path id="corn_копия" data-name="corn копия" class="cls-1" d="M530.194,2067.78c-16.174.31-30.018-13.51-29.817-30.2,0.2-16.48,13.354-29.95,29.682-29.85,16.785,0.1,29.749,13.23,29.819,30.23C559.947,2054.68,546.1,2067.97,530.194,2067.78Zm-27.651-30.2c-0.034,15.41,12.3,28.01,27.455,28.05,15.182,0.04,27.588-12.49,27.768-27.78,0.174-14.73-12.441-28.02-27.565-27.89A27.8,27.8,0,0,0,502.543,2037.58Zm36.994-2.33c3.809,0.21,3.848.21,3.8,3.95a94.745,94.745,0,0,1-.365,11.32,11.164,11.164,0,0,1-9.042,9.95c-8.67,1.84-16.471-3.84-16.9-12.87-0.244-5.14-.046-10.31-0.047-15.46,0-2.72,0-2.72,2.669-2.8,0.339-.01.677-0.05,1.207-0.1,0-1.66-.008-3.24,0-4.82a9.339,9.339,0,0,1,18.674-.09C539.558,2027.93,539.537,2031.53,539.537,2035.25Zm-7.846,23.07c0-5.37.231-10.65-.065-15.89a11.21,11.21,0,0,0-8.19-10.41c-4.023-1.12-4.287-.93-4.285,3.15,0,0.29,0,.59,0,0.89,0.084,4.32-.154,8.67.333,12.94A10.824,10.824,0,0,0,531.691,2058.32Zm2.152-4.41a6.636,6.636,0,0,0,3.519-5.92q0.069-11.82.007-23.65a6.784,6.784,0,0,0-5.042-6.62c-4.528-1.16-8.909,1.57-9.285,6.08-0.157,1.88-.026,3.78-0.026,5.69,0.365,0.14.628,0.26,0.9,0.35,6.746,2.39,9.927,6.94,9.929,14.19C533.844,2047.22,533.843,2050.41,533.843,2053.91Zm7.372-16.2c-0.3-.13-0.6-0.25-0.905-0.37a3.927,3.927,0,0,0-.744,1.44c-0.073,2.95-.07,5.91-0.035,8.87a9.066,9.066,0,0,1-4.655,8.35,6.036,6.036,0,0,0-1.273,1.7c0.164,0.13.327,0.25,0.49,0.37,3.268-1.08,5.836-3.29,6.353-6.65C541.138,2046.92,541,2042.28,541.215,2037.71Zm-14.013-15.6c0.725,0.67,1.213,1.12,1.7,1.56-0.524.42-1.064,1.2-1.567,1.18a4.712,4.712,0,0,1-1.839-1.13C525.986,2023.26,526.475,2022.8,527.2,2022.11Zm-0.057,7.91-1.633-1.73a5.49,5.49,0,0,1,1.92-.99c0.465-.03.982,0.66,1.477,1.03C528.412,2028.81,527.916,2029.28,527.145,2030.02Zm5.984-5.92c-0.654-.63-1.087-1.04-1.519-1.46a4.381,4.381,0,0,1,1.684-1.05,3.885,3.885,0,0,1,1.6,1.03C534.386,2023.04,533.88,2023.47,533.129,2024.1Zm0.274,6.15c0.647,0.68,1.068,1.13,1.488,1.57-0.5.37-1.02,1.05-1.5,1.02a4.657,4.657,0,0,1-1.755-1C532.134,2031.39,532.638,2030.94,533.4,2030.25Zm0.067-1.55c-0.826-.61-1.365-1.01-1.9-1.41a5.493,5.493,0,0,1,1.88-1.07c0.436-.05.959,0.67,1.443,1.05C534.478,2027.69,534.066,2028.1,533.47,2028.7Z" transform="translate(-500.375 -2007.72)"/>
</svg>
